<svg width="100" height="100" viewBox="0 0 100 100" fill="none" xmlns="http://www.w3.org/2000/svg">
<path d="M50 62.5C60.3553 62.5 68.75 54.1053 68.75 43.75C68.75 33.3947 60.3553 25 50 25C39.6447 25 31.25 33.3947 31.25 43.75C31.25 54.1053 39.6447 62.5 50 62.5Z" fill="#434C4E"/>
<path d="M50 0C22.5 0 0 22.5 0 50C0 77.5 22.5 100 50 100C77.5 100 100 77.5 100 50C100 22.5 77.5 0 50 0ZM75 77.5C71.25 73.125 66.25 68.75 56.25 68.75H43.75C33.75 68.75 28.75 73.125 25 77.5C17.5 70.625 12.5 61.25 12.5 50C12.5 29.375 29.375 12.5 50 12.5C70.625 12.5 87.5 29.375 87.5 50C87.5 61.25 82.5 70.625 75 77.5Z" fill="#434C4E"/>
</svg>
