<svg
										width="14"
										height="14"
										viewBox="0 0 14 14"
										fill="none"
										xmlns="http://www.w3.org/2000/svg"
									>
										<path
											d="M10.9023 5.80056H4.97501V4.50633C4.97501 3.42079 5.88346 2.53765 7.00025 2.53765C7.94087 2.53765 8.73398 3.16488 8.96015 4.0119C9.03139 4.2787 9.24867 4.50633 9.52482 4.50633H10.1059C10.3821 4.50633 10.6097 4.28113 10.5696 4.00793C10.32 2.30994 8.81426 1 7.00025 1C5.0116 1 3.39392 2.57323 3.39392 4.50633V5.80056H3.09748C2.49174 5.80056 2 6.27803 2 6.8675V11.9319C2 12.5215 2.49174 13 3.09748 13H10.9023C11.5086 13 12 12.5215 12 11.9319V6.8675C12 6.27803 11.5086 5.80056 10.9023 5.80056ZM7.45947 9.4688V10.1314C7.45947 10.2302 7.37749 10.3103 7.27585 10.3103H6.72415C6.62251 10.3103 6.54019 10.2302 6.54019 10.1314V9.4688C6.28881 9.31826 6.11959 9.05013 6.11959 8.74197C6.11959 8.26944 6.51359 7.88601 6.99992 7.88601C7.48624 7.88601 7.88024 8.26944 7.88024 8.74197C7.88024 9.05013 7.71119 9.31826 7.45947 9.4688Z"
											fill="#A3A7A9"
										/>
									</svg>