<svg width="14" height="14" viewBox="0 0 14 14" fill="none" xmlns="http://www.w3.org/2000/svg">
<g clip-path="url(#clip0_643_2503)">
<path fill-rule="evenodd" clip-rule="evenodd" d="M3.5 4.66669C3.5 3.73843 3.86875 2.84819 4.52513 2.19181C5.1815 1.53544 6.07174 1.16669 7 1.16669C7.92826 1.16669 8.8185 1.53544 9.47487 2.19181C10.1313 2.84819 10.5 3.73843 10.5 4.66669H11.0833C11.3928 4.66669 11.6895 4.7896 11.9083 5.0084C12.1271 5.22719 12.25 5.52393 12.25 5.83335V11.6667C12.25 11.9761 12.1271 12.2729 11.9083 12.4916C11.6895 12.7104 11.3928 12.8334 11.0833 12.8334H2.91667C2.60725 12.8334 2.3105 12.7104 2.09171 12.4916C1.87292 12.2729 1.75 11.9761 1.75 11.6667V5.83335C1.75 5.52393 1.87292 5.22719 2.09171 5.0084C2.3105 4.7896 2.60725 4.66669 2.91667 4.66669H3.5ZM7 2.33335C7.61884 2.33335 8.21233 2.57919 8.64992 3.01677C9.0875 3.45436 9.33333 4.04785 9.33333 4.66669H4.66667C4.66667 4.04785 4.9125 3.45436 5.35008 3.01677C5.78767 2.57919 6.38116 2.33335 7 2.33335ZM8.16667 8.16669C8.16666 8.37148 8.11275 8.57265 8.01036 8.75C7.90796 8.92735 7.76068 9.07463 7.58333 9.17702V9.91669C7.58333 10.0714 7.52187 10.2198 7.41248 10.3292C7.30308 10.4386 7.15471 10.5 7 10.5C6.84529 10.5 6.69692 10.4386 6.58752 10.3292C6.47812 10.2198 6.41667 10.0714 6.41667 9.91669V9.17702C6.19427 9.0486 6.02045 8.85039 5.92218 8.61312C5.82391 8.37585 5.80667 8.11279 5.87314 7.86473C5.93961 7.61667 6.08607 7.39747 6.28981 7.24112C6.49355 7.08478 6.74319 7.00003 7 7.00002C7.30942 7.00002 7.60617 7.12294 7.82496 7.34173C8.04375 7.56052 8.16667 7.85727 8.16667 8.16669Z" fill="#A3A7A9"/>
</g>
<defs>
<clipPath id="clip0_643_2503">
<rect width="14" height="14" fill="white"/>
</clipPath>
</defs>
</svg>
