<svg width="166" height="34" viewBox="0 0 166 34" fill="none" xmlns="http://www.w3.org/2000/svg">
<path d="M33.708 27.28C32.1773 27.28 30.712 27.0653 29.312 26.636C27.912 26.188 26.8013 25.6187 25.98 24.928L27.24 22.1C28.024 22.716 28.9947 23.2293 30.152 23.64C31.3093 24.0507 32.4947 24.256 33.708 24.256C34.7347 24.256 35.5653 24.144 36.2 23.92C36.8347 23.696 37.3013 23.3973 37.6 23.024C37.8987 22.632 38.048 22.1933 38.048 21.708C38.048 21.1107 37.8333 20.6347 37.404 20.28C36.9747 19.9067 36.4147 19.6173 35.724 19.412C35.052 19.188 34.296 18.9827 33.456 18.796C32.6347 18.6093 31.804 18.3947 30.964 18.152C30.1427 17.8907 29.3867 17.564 28.696 17.172C28.024 16.7613 27.4733 16.22 27.044 15.548C26.6147 14.876 26.4 14.0173 26.4 12.972C26.4 11.908 26.68 10.9373 27.24 10.06C27.8187 9.164 28.6867 8.45467 29.844 7.932C31.02 7.39067 32.504 7.12 34.296 7.12C35.472 7.12 36.6387 7.26933 37.796 7.568C38.9533 7.86667 39.9613 8.296 40.82 8.856L39.672 11.684C38.7947 11.1613 37.8893 10.7787 36.956 10.536C36.0227 10.2747 35.1267 10.144 34.268 10.144C33.26 10.144 32.4387 10.2653 31.804 10.508C31.188 10.7507 30.7307 11.068 30.432 11.46C30.152 11.852 30.012 12.3 30.012 12.804C30.012 13.4013 30.2173 13.8867 30.628 14.26C31.0573 14.6147 31.608 14.8947 32.28 15.1C32.9707 15.3053 33.736 15.5107 34.576 15.716C35.416 15.9027 36.2467 16.1173 37.068 16.36C37.908 16.6027 38.664 16.92 39.336 17.312C40.0267 17.704 40.5773 18.236 40.988 18.908C41.4173 19.58 41.632 20.4293 41.632 21.456C41.632 22.5013 41.3427 23.472 40.764 24.368C40.204 25.2453 39.336 25.9547 38.16 26.496C36.984 27.0187 35.5 27.28 33.708 27.28ZM45.3254 27V10.984H52.2414C53.6787 10.984 54.92 11.2173 55.9654 11.684C57.0107 12.132 57.8134 12.7853 58.3734 13.644C58.952 14.5027 59.2414 15.5387 59.2414 16.752C59.2414 17.9653 58.952 19.0107 58.3734 19.888C57.8134 20.7467 57.0107 21.4093 55.9654 21.876C54.92 22.324 53.6787 22.548 52.2414 22.548H47.2854L48.8534 20.924V27H45.3254ZM48.8534 21.344L47.5654 19.692H51.9894C53.2214 19.692 54.1454 19.44 54.7614 18.936C55.3774 18.4133 55.6854 17.6853 55.6854 16.752C55.6854 15.8187 55.3774 15.1 54.7614 14.596C54.1454 14.092 53.2214 13.84 51.9894 13.84H47.5654L48.8534 12.216V21.344ZM70.7468 27.28C69.0481 27.28 67.5268 26.9253 66.1828 26.216C64.8574 25.488 63.8121 24.4987 63.0468 23.248C62.2814 21.9973 61.8988 20.5787 61.8988 18.992C61.8988 17.4053 62.2814 15.996 63.0468 14.764C63.8121 13.5133 64.8574 12.5333 66.1828 11.824C67.5268 11.096 69.0388 10.732 70.7188 10.732C72.4174 10.732 73.9294 11.096 75.2548 11.824C76.5988 12.5333 77.6534 13.5133 78.4188 14.764C79.1841 15.996 79.5668 17.4053 79.5668 18.992C79.5668 20.5787 79.1841 21.9973 78.4188 23.248C77.6534 24.4987 76.5988 25.488 75.2548 26.216C73.9294 26.9253 72.4268 27.28 70.7468 27.28ZM70.7188 24.284C71.7454 24.284 72.6508 24.06 73.4348 23.612C74.2374 23.1453 74.8628 22.5107 75.3108 21.708C75.7588 20.9053 75.9828 20 75.9828 18.992C75.9828 17.9653 75.7494 17.06 75.2828 16.276C74.8348 15.4733 74.2188 14.848 73.4348 14.4C72.6508 13.952 71.7548 13.728 70.7468 13.728C69.7388 13.728 68.8334 13.952 68.0308 14.4C67.2281 14.848 66.5934 15.4733 66.1268 16.276C65.6788 17.06 65.4548 17.9653 65.4548 18.992C65.4548 20 65.6788 20.9053 66.1268 21.708C66.5934 22.5107 67.2281 23.1453 68.0308 23.612C68.8334 24.06 69.7294 24.284 70.7188 24.284ZM83.3737 27V10.984H90.2897C91.727 10.984 92.9683 11.2173 94.0137 11.684C95.059 12.132 95.8617 12.7853 96.4217 13.644C97.0003 14.5027 97.2897 15.5387 97.2897 16.752C97.2897 17.9467 97.0003 18.9733 96.4217 19.832C95.8617 20.6907 95.059 21.344 94.0137 21.792C92.9683 22.24 91.727 22.464 90.2897 22.464H85.3337L86.9017 20.924V27H83.3737ZM93.7897 27L89.6737 21.176H93.4817L97.5977 27H93.7897ZM86.9017 21.344L85.6137 19.692H90.0377C91.2697 19.692 92.1937 19.44 92.8097 18.936C93.4257 18.4133 93.7337 17.6853 93.7337 16.752C93.7337 15.8187 93.4257 15.1 92.8097 14.596C92.1937 14.092 91.2697 13.84 90.0377 13.84H85.6137L86.9017 12.216V21.344ZM104.148 27V13.868H98.8843V10.984H112.94V13.868H107.676V27H104.148ZM115.958 27V7.4H125.142C127.494 7.4 129.286 7.86667 130.518 8.8C131.75 9.71467 132.366 10.9467 132.366 12.496C132.366 13.5413 132.123 14.4373 131.638 15.184C131.152 15.912 130.499 16.4813 129.678 16.892C128.875 17.284 127.998 17.48 127.046 17.48L127.55 16.472C128.651 16.472 129.64 16.6773 130.518 17.088C131.395 17.48 132.086 18.0587 132.59 18.824C133.112 19.5893 133.374 20.5413 133.374 21.68C133.374 23.36 132.73 24.6667 131.442 25.6C130.154 26.5333 128.24 27 125.702 27H115.958ZM119.598 24.144H125.478C126.84 24.144 127.886 23.92 128.614 23.472C129.342 23.024 129.706 22.3053 129.706 21.316C129.706 20.3453 129.342 19.636 128.614 19.188C127.886 18.7213 126.84 18.488 125.478 18.488H119.318V15.66H124.75C126.019 15.66 126.99 15.436 127.662 14.988C128.352 14.54 128.698 13.868 128.698 12.972C128.698 12.0573 128.352 11.376 127.662 10.928C126.99 10.48 126.019 10.256 124.75 10.256H119.598V24.144ZM140.395 17.508H148.515V20.252H140.395V17.508ZM140.871 24.172H149.775V27H137.343V10.984H149.467V13.84H140.871V24.172ZM156.641 27V13.868H151.377V10.984H165.433V13.868H160.169V27H156.641Z" fill="url(#paint0_linear_447_2598)"/>
<path d="M5.00012 30.2096L17.0002 18.1128L5.00012 18.1128V30.2096Z" fill="white"/>
<path d="M11.0001 3.9999L5.62668e-05 16.0967L11.0001 16.0967V3.9999Z" fill="#69F29F"/>
<defs>
<linearGradient id="paint0_linear_447_2598" x1="113" y1="12" x2="113.985" y2="11.8775" gradientUnits="userSpaceOnUse">
<stop stop-color="#69F29F"/>
<stop offset="1" stop-color="white"/>
</linearGradient>
</defs>
</svg>
