<svg width="166" height="34" viewBox="0 0 166 34" fill="none" xmlns="http://www.w3.org/2000/svg">
<path d="M11.8161 27.28C10.2854 27.28 8.87606 27.028 7.58806 26.524C6.30006 26.02 5.18006 25.32 4.22806 24.424C3.27606 23.5093 2.53872 22.4453 2.01606 21.232C1.49339 20 1.23206 18.656 1.23206 17.2C1.23206 15.744 1.49339 14.4093 2.01606 13.196C2.53872 11.964 3.27606 10.9 4.22806 10.004C5.18006 9.08933 6.30006 8.38 7.58806 7.876C8.87606 7.372 10.2761 7.12 11.7881 7.12C13.3187 7.12 14.7187 7.372 15.9881 7.876C17.2761 8.38 18.3961 9.08933 19.3481 10.004C20.3001 10.9 21.0374 11.964 21.5601 13.196C22.0827 14.4093 22.3441 15.744 22.3441 17.2C22.3441 18.656 22.0827 20 21.5601 21.232C21.0374 22.464 20.3001 23.528 19.3481 24.424C18.3961 25.32 17.2761 26.02 15.9881 26.524C14.7187 27.028 13.3281 27.28 11.8161 27.28ZM11.7881 24.088C12.7774 24.088 13.6921 23.92 14.5321 23.584C15.3721 23.248 16.1001 22.772 16.7161 22.156C17.3321 21.5213 17.8081 20.7933 18.1441 19.972C18.4987 19.132 18.6761 18.208 18.6761 17.2C18.6761 16.192 18.4987 15.2773 18.1441 14.456C17.8081 13.616 17.3321 12.888 16.7161 12.272C16.1001 11.6373 15.3721 11.152 14.5321 10.816C13.6921 10.48 12.7774 10.312 11.7881 10.312C10.7987 10.312 9.88406 10.48 9.04406 10.816C8.22272 11.152 7.49472 11.6373 6.86006 12.272C6.24406 12.888 5.75872 13.616 5.40406 14.456C5.06806 15.2773 4.90006 16.192 4.90006 17.2C4.90006 18.1893 5.06806 19.104 5.40406 19.944C5.75872 20.784 6.24406 21.5213 6.86006 22.156C7.47606 22.772 8.20406 23.248 9.04406 23.584C9.88406 23.92 10.7987 24.088 11.7881 24.088Z" fill="url(#paint0_linear_1701_804)"/>
<path d="M35.6664 27.28C34.1357 27.28 32.7264 27.028 31.4384 26.524C30.1504 26.02 29.0304 25.32 28.0784 24.424C27.1264 23.5093 26.389 22.4453 25.8664 21.232C25.3437 20 25.0824 18.656 25.0824 17.2C25.0824 15.744 25.3437 14.4093 25.8664 13.196C26.389 11.964 27.1264 10.9 28.0784 10.004C29.0304 9.08933 30.1504 8.38 31.4384 7.876C32.7264 7.372 34.1264 7.12 35.6384 7.12C37.169 7.12 38.569 7.372 39.8384 7.876C41.1264 8.38 42.2464 9.08933 43.1984 10.004C44.1504 10.9 44.8877 11.964 45.4104 13.196C45.933 14.4093 46.1944 15.744 46.1944 17.2C46.1944 18.656 45.933 20 45.4104 21.232C44.8877 22.464 44.1504 23.528 43.1984 24.424C42.2464 25.32 41.1264 26.02 39.8384 26.524C38.569 27.028 37.1784 27.28 35.6664 27.28ZM35.6384 24.088C36.6277 24.088 37.5424 23.92 38.3824 23.584C39.2224 23.248 39.9504 22.772 40.5664 22.156C41.1824 21.5213 41.6584 20.7933 41.9944 19.972C42.349 19.132 42.5264 18.208 42.5264 17.2C42.5264 16.192 42.349 15.2773 41.9944 14.456C41.6584 13.616 41.1824 12.888 40.5664 12.272C39.9504 11.6373 39.2224 11.152 38.3824 10.816C37.5424 10.48 36.6277 10.312 35.6384 10.312C34.649 10.312 33.7344 10.48 32.8944 10.816C32.073 11.152 31.345 11.6373 30.7104 12.272C30.0944 12.888 29.609 13.616 29.2544 14.456C28.9184 15.2773 28.7504 16.192 28.7504 17.2C28.7504 18.1893 28.9184 19.104 29.2544 19.944C29.609 20.784 30.0944 21.5213 30.7104 22.156C31.3264 22.772 32.0544 23.248 32.8944 23.584C33.7344 23.92 34.649 24.088 35.6384 24.088Z" fill="url(#paint1_linear_1701_804)"/>
<path d="M53.6647 16.416H63.4367V19.496H53.6647V16.416ZM53.9727 27H50.3327V7.39999H64.6407V10.452H53.9727V27Z" fill="url(#paint2_linear_1701_804)"/>
<path d="M72.5535 27V10.48H66.0575V7.39999H82.6895V10.48H76.1935V27H72.5535Z" fill="url(#paint3_linear_1701_804)"/>
<path d="M85.3686 27V10.984H92.2846C93.7219 10.984 94.9632 11.2173 96.0086 11.684C97.0539 12.132 97.8566 12.7853 98.4166 13.644C98.9952 14.5027 99.2846 15.5387 99.2846 16.752C99.2846 17.9467 98.9952 18.9733 98.4166 19.832C97.8566 20.6907 97.0539 21.344 96.0086 21.792C94.9632 22.24 93.7219 22.464 92.2846 22.464H87.3286L88.8966 20.924V27H85.3686ZM95.7846 27L91.6686 21.176H95.4766L99.5926 27H95.7846ZM88.8966 21.344L87.6086 19.692H92.0326C93.2646 19.692 94.1886 19.44 94.8046 18.936C95.4206 18.4133 95.7286 17.6853 95.7286 16.752C95.7286 15.8187 95.4206 15.1 94.8046 14.596C94.1886 14.092 93.2646 13.84 92.0326 13.84H87.6086L88.8966 12.216V21.344Z" fill="url(#paint4_linear_1701_804)"/>
<path d="M100.901 27L108.181 10.984H111.681L118.933 27H115.433L109.329 12.776H110.505L104.345 27H100.901ZM104.513 23.528L105.465 20.84H113.809L114.761 23.528H104.513Z" fill="url(#paint5_linear_1701_804)"/>
<path d="M121.503 27V10.984H128.755C130.584 10.984 132.161 11.3107 133.487 11.964C134.831 12.6173 135.867 13.5507 136.595 14.764C137.341 15.9587 137.715 17.368 137.715 18.992C137.715 20.6347 137.341 22.0533 136.595 23.248C135.867 24.4427 134.831 25.3667 133.487 26.02C132.161 26.6733 130.584 27 128.755 27H121.503ZM125.031 24.144H128.643C129.781 24.144 130.761 23.9387 131.583 23.528C132.404 23.1173 133.039 22.5293 133.487 21.764C133.935 20.9987 134.159 20.0747 134.159 18.992C134.159 17.9093 133.935 16.9853 133.487 16.22C133.039 15.4547 132.404 14.876 131.583 14.484C130.761 14.0733 129.781 13.868 128.643 13.868H125.031V24.144Z" fill="url(#paint6_linear_1701_804)"/>
<path d="M144.604 17.508H152.724V20.252H144.604V17.508ZM145.08 24.172H153.984V27H141.552V10.984H153.676V13.84H145.08V24.172Z" fill="url(#paint7_linear_1701_804)"/>
<defs>
<linearGradient id="paint0_linear_1701_804" x1="64.5" y1="12" x2="66" y2="12" gradientUnits="userSpaceOnUse">
<stop stop-color="#69F29F"/>
<stop offset="1" stop-color="white"/>
</linearGradient>
<linearGradient id="paint1_linear_1701_804" x1="64.5" y1="12" x2="66" y2="12" gradientUnits="userSpaceOnUse">
<stop stop-color="#69F29F"/>
<stop offset="1" stop-color="white"/>
</linearGradient>
<linearGradient id="paint2_linear_1701_804" x1="64.5" y1="12" x2="66" y2="12" gradientUnits="userSpaceOnUse">
<stop stop-color="#69F29F"/>
<stop offset="1" stop-color="white"/>
</linearGradient>
<linearGradient id="paint3_linear_1701_804" x1="64.5" y1="12" x2="66" y2="12" gradientUnits="userSpaceOnUse">
<stop stop-color="#69F29F"/>
<stop offset="1" stop-color="white"/>
</linearGradient>
<linearGradient id="paint4_linear_1701_804" x1="64.5" y1="12" x2="66" y2="12" gradientUnits="userSpaceOnUse">
<stop stop-color="#69F29F"/>
<stop offset="1" stop-color="white"/>
</linearGradient>
<linearGradient id="paint5_linear_1701_804" x1="64.5" y1="12" x2="66" y2="12" gradientUnits="userSpaceOnUse">
<stop stop-color="#69F29F"/>
<stop offset="1" stop-color="white"/>
</linearGradient>
<linearGradient id="paint6_linear_1701_804" x1="64.5" y1="12" x2="66" y2="12" gradientUnits="userSpaceOnUse">
<stop stop-color="#69F29F"/>
<stop offset="1" stop-color="white"/>
</linearGradient>
<linearGradient id="paint7_linear_1701_804" x1="64.5" y1="12" x2="66" y2="12" gradientUnits="userSpaceOnUse">
<stop stop-color="#69F29F"/>
<stop offset="1" stop-color="white"/>
</linearGradient>
</defs>
</svg>
