<svg width="179" height="34" viewBox="0 0 179 34" fill="none" xmlns="http://www.w3.org/2000/svg">
<path d="M36.7882 27.28C34.7909 27.28 32.9896 26.8507 31.3842 25.992C29.7789 25.1147 28.5189 23.9107 27.6042 22.38C26.6896 20.8307 26.2322 19.104 26.2322 17.2C26.2322 15.296 26.6896 13.5787 27.6042 12.048C28.5189 10.4987 29.7789 9.29467 31.3842 8.436C32.9896 7.55867 34.7909 7.12 36.7882 7.12C38.7856 7.12 40.5869 7.55867 42.1922 8.436C43.7976 9.29467 45.0576 10.4893 45.9722 12.02C46.8869 13.5507 47.3442 15.2773 47.3442 17.2C47.3442 19.1227 46.8869 20.8493 45.9722 22.38C45.0576 23.9107 43.7976 25.1147 42.1922 25.992C40.5869 26.8507 38.7856 27.28 36.7882 27.28ZM36.7882 24.088C38.0949 24.088 39.2709 23.7987 40.3162 23.22C41.3616 22.6227 42.1829 21.8013 42.7802 20.756C43.3776 19.692 43.6762 18.5067 43.6762 17.2C43.6762 15.8933 43.3776 14.7173 42.7802 13.672C42.1829 12.608 41.3616 11.7867 40.3162 11.208C39.2709 10.6107 38.0949 10.312 36.7882 10.312C35.4816 10.312 34.3056 10.6107 33.2602 11.208C32.2149 11.7867 31.3936 12.608 30.7962 13.672C30.1989 14.7173 29.9002 15.8933 29.9002 17.2C29.9002 18.5067 30.1989 19.692 30.7962 20.756C31.3936 21.8013 32.2149 22.6227 33.2602 23.22C34.3056 23.7987 35.4816 24.088 36.7882 24.088ZM60.6386 27.28C58.6412 27.28 56.8399 26.8507 55.2346 25.992C53.6292 25.1147 52.3692 23.9107 51.4546 22.38C50.5399 20.8307 50.0826 19.104 50.0826 17.2C50.0826 15.296 50.5399 13.5787 51.4546 12.048C52.3692 10.4987 53.6292 9.29467 55.2346 8.436C56.8399 7.55867 58.6412 7.12 60.6386 7.12C62.6359 7.12 64.4372 7.55867 66.0426 8.436C67.6479 9.29467 68.9079 10.4893 69.8226 12.02C70.7372 13.5507 71.1946 15.2773 71.1946 17.2C71.1946 19.1227 70.7372 20.8493 69.8226 22.38C68.9079 23.9107 67.6479 25.1147 66.0426 25.992C64.4372 26.8507 62.6359 27.28 60.6386 27.28ZM60.6386 24.088C61.9452 24.088 63.1212 23.7987 64.1666 23.22C65.2119 22.6227 66.0332 21.8013 66.6306 20.756C67.2279 19.692 67.5266 18.5067 67.5266 17.2C67.5266 15.8933 67.2279 14.7173 66.6306 13.672C66.0332 12.608 65.2119 11.7867 64.1666 11.208C63.1212 10.6107 61.9452 10.312 60.6386 10.312C59.3319 10.312 58.1559 10.6107 57.1106 11.208C56.0652 11.7867 55.2439 12.608 54.6466 13.672C54.0492 14.7173 53.7506 15.8933 53.7506 17.2C53.7506 18.5067 54.0492 19.692 54.6466 20.756C55.2439 21.8013 56.0652 22.6227 57.1106 23.22C58.1559 23.7987 59.3319 24.088 60.6386 24.088ZM78.9729 10.452V16.416H88.4369V19.496H78.9729V27H75.3329V7.4H89.6409V10.452H78.9729ZM97.5537 10.48H91.0577V7.4H107.69V10.48H101.194V27H97.5537V10.48ZM120.785 27L117.565 22.464H117.285H113.897V27H110.369V10.984H117.285C119.45 10.984 121.158 11.4973 122.409 12.524C123.659 13.532 124.285 14.9413 124.285 16.752C124.285 17.9467 123.995 18.9827 123.417 19.86C122.838 20.7187 122.007 21.372 120.925 21.82L124.593 27H120.785ZM120.729 16.752C120.729 15.8 120.411 15.0813 119.777 14.596C119.161 14.092 118.246 13.84 117.033 13.84H113.897V19.692H117.033C118.246 19.692 119.161 19.44 119.777 18.936C120.411 18.432 120.729 17.704 120.729 16.752ZM138.949 23.528H130.857L129.345 27H125.901L133.181 10.984H136.681L143.933 27H140.433L138.949 23.528ZM137.801 20.84L134.917 14.176L132.033 20.84H137.801ZM146.503 10.984H153.755C155.547 10.984 157.115 11.3107 158.459 11.964C159.822 12.6173 160.867 13.5507 161.595 14.764C162.342 15.9587 162.715 17.368 162.715 18.992C162.715 20.616 162.342 22.0347 161.595 23.248C160.867 24.4427 159.822 25.3667 158.459 26.02C157.115 26.6733 155.547 27 153.755 27H146.503V10.984ZM153.643 24.144C155.36 24.144 156.704 23.696 157.675 22.8C158.664 21.8853 159.159 20.616 159.159 18.992C159.159 17.368 158.664 16.108 157.675 15.212C156.704 14.316 155.36 13.868 153.643 13.868H150.031V24.144H153.643ZM178.985 24.172V27H166.553V10.984H178.677V13.84H170.081V17.508H177.725V20.252H170.081V24.172H178.985Z" fill="url(#paint0_linear_645_2501)"/>
<path d="M5.39172 30.2096L18.3316 18.1128L5.39172 18.1128V30.2096Z" fill="white"/>
<path d="M11.8615 3.9999L-5.72205e-06 16.0967L11.8615 16.0967V3.9999Z" fill="#69F29F"/>
<defs>
<linearGradient id="paint0_linear_645_2501" x1="88.5" y1="10" x2="90.5" y2="10" gradientUnits="userSpaceOnUse">
<stop offset="0.893859" stop-color="#69F29F"/>
<stop offset="1" stop-color="white"/>
</linearGradient>
</defs>
</svg>
