<svg width="18" height="18" viewBox="0 0 18 18" fill="none" xmlns="http://www.w3.org/2000/svg">
<g id="eye">
<g id="vuesax/bold/eye">
<g id="Group 1000003199">
<path id="Vector" d="M17.325 6.148C15.246 2.881 12.204 1 9 1C7.398 1 5.841 1.468 4.419 2.341C2.997 3.223 1.719 4.51 0.675 6.148C-0.225 7.561 -0.225 9.856 0.675 11.269C2.754 14.545 5.796 16.417 9 16.417C10.602 16.417 12.159 15.949 13.581 15.076C15.003 14.194 16.281 12.907 17.325 11.269C18.225 9.865 18.225 7.561 17.325 6.148ZM9 12.349C6.984 12.349 5.364 10.72 5.364 8.713C5.364 6.706 6.984 5.077 9 5.077C11.016 5.077 12.636 6.706 12.636 8.713C12.636 10.72 11.016 12.349 9 12.349Z" fill="#A3A7A9"/>
<path id="Vector_2" d="M9.0003 6.13916C7.5873 6.13916 6.4353 7.29116 6.4353 8.71316C6.4353 10.1262 7.5873 11.2782 9.0003 11.2782C10.4133 11.2782 11.5743 10.1262 11.5743 8.71316C11.5743 7.30016 10.4133 6.13916 9.0003 6.13916Z" fill="#A3A7A9"/>
</g>
</g>
</g>
</svg>
