<svg width="18" height="18" viewBox="0 0 18 18" fill="none" xmlns="http://www.w3.org/2000/svg">
<g id="eye-slash">
<g id="vuesax/bold/eye-slash">
<g id="Group 1000003200">
<path id="Vector" d="M17.3357 6.60294C17.0749 6.18911 16.796 5.80228 16.5081 5.44243C16.1752 5.01961 15.5455 4.98362 15.1677 5.36146L12.4688 8.06033C12.6667 8.65408 12.7027 9.33779 12.5228 10.0485C12.2079 11.317 11.1823 12.3425 9.91387 12.6574C9.20317 12.8373 8.51946 12.8013 7.92571 12.6034C7.92571 12.6034 6.63926 13.8899 5.71265 14.8165C5.26284 15.2663 5.40677 16.058 6.00952 16.2919C6.97211 16.6607 7.97069 16.8496 8.99626 16.8496C10.5976 16.8496 12.1539 16.3818 13.5753 15.5092C15.0237 14.6096 16.3282 13.2871 17.3807 11.6048C18.2354 10.2464 18.1904 7.96137 17.3357 6.60294Z" fill="#A3A7A9"/>
<path id="Vector_2" d="M10.813 7.32233L7.17853 10.9568C6.71973 10.489 6.42285 9.84127 6.42285 9.13957C6.42285 7.72716 7.57437 6.56665 8.99577 6.56665C9.69747 6.56665 10.3452 6.86352 10.813 7.32233Z" fill="#A3A7A9"/>
<path id="Vector_3" d="M14.6188 3.51705L11.5691 6.56677C10.9124 5.90105 10.0038 5.50521 8.99621 5.50521C6.98106 5.50521 5.36174 7.13353 5.36174 9.13968C5.36174 10.1473 5.76657 11.0559 6.42329 11.7126L3.38257 14.7623H3.37358C2.375 13.9527 1.45739 12.9181 0.674716 11.6946C-0.224905 10.2822 -0.224905 7.98817 0.674716 6.57576C1.71828 4.93845 2.99574 3.652 4.41714 2.77037C5.83854 1.90673 7.39488 1.42993 8.99621 1.42993C11.0024 1.42993 12.9455 2.16762 14.6188 3.51705Z" fill="#A3A7A9"/>
<path id="Vector_4" d="M11.5696 9.13975C11.5696 10.5522 10.4181 11.7127 8.99669 11.7127C8.94271 11.7127 8.89773 11.7127 8.84375 11.6947L11.5516 8.98682C11.5696 9.04079 11.5696 9.08577 11.5696 9.13975Z" fill="#A3A7A9"/>
</g>
<path id="Vector_5" d="M17.7929 0.202551C17.5229 -0.0675169 17.0818 -0.0675169 16.8117 0.202551L0.202551 16.8207C-0.0675169 17.0908 -0.0675169 17.5319 0.202551 17.802C0.337584 17.928 0.508627 18 0.688672 18C0.868717 18 1.03976 17.928 1.17479 17.7929L17.7929 1.17479C18.072 0.904726 18.072 0.472618 17.7929 0.202551Z" fill="#A3A7A9"/>
</g>
</g>
</svg>
