<svg xmlns="http://www.w3.org/2000/svg" width="56" height="56" viewBox="0 0 56 56" fill="none">
  <path d="M5.39261 44.824L5.34461 44.872C4.69661 43.456 4.28861 41.848 4.12061 40.072C4.28861 41.824 4.74461 43.408 5.39261 44.824Z" fill="#434C4E"/>
  <path d="M20.8001 24.1127C23.9548 24.1127 26.5121 21.5554 26.5121 18.4007C26.5121 15.2461 23.9548 12.6887 20.8001 12.6887C17.6455 12.6887 15.0881 15.2461 15.0881 18.4007C15.0881 21.5554 17.6455 24.1127 20.8001 24.1127Z" fill="#434C4E"/>
  <path d="M38.056 4H17.944C9.208 4 4 9.208 4 17.944V38.056C4 40.672 4.456 42.952 5.344 44.872C7.408 49.432 11.824 52 17.944 52H38.056C46.792 52 52 46.792 52 38.056V32.56V17.944C52 9.208 46.792 4 38.056 4ZM48.088 29.2C46.216 27.592 43.192 27.592 41.32 29.2L31.336 37.768C29.464 39.376 26.44 39.376 24.568 37.768L23.752 37.096C22.048 35.608 19.336 35.464 17.416 36.76L8.44 42.784C7.912 41.44 7.6 39.88 7.6 38.056V17.944C7.6 11.176 11.176 7.6 17.944 7.6H38.056C44.824 7.6 48.4 11.176 48.4 17.944V29.464L48.088 29.2Z" fill="#434C4E"/>
</svg>