<svg width="40" height="40" viewBox="0 0 40 40" fill="none" xmlns="http://www.w3.org/2000/svg">
<circle cx="20" cy="20" r="18" fill="#313A3D" stroke="#1A2427" stroke-width="4"/>
<path d="M24.3042 15.8C23.8666 15.8 23.4649 15.555 23.264 15.177L22.7475 14.162C22.4175 13.525 21.5567 13 20.825 13H19.1822C18.4433 13 17.5825 13.525 17.2525 14.162L16.736 15.177C16.5351 15.555 16.1334 15.8 15.6958 15.8C14.1392 15.8 12.9053 17.081 13.0057 18.593L13.3788 24.375C13.4648 25.817 14.2611 27 16.241 27H23.759C25.7389 27 26.528 25.817 26.6212 24.375L26.9943 18.593C27.0947 17.081 25.8608 15.8 24.3042 15.8ZM18.924 16.675H21.076C21.3702 16.675 21.6141 16.913 21.6141 17.2C21.6141 17.487 21.3702 17.725 21.076 17.725H18.924C18.6298 17.725 18.3859 17.487 18.3859 17.2C18.3859 16.913 18.6298 16.675 18.924 16.675ZM20 24.284C18.6657 24.284 17.5753 23.227 17.5753 21.918C17.5753 20.609 18.6585 19.552 20 19.552C21.3415 19.552 22.4247 20.609 22.4247 21.918C22.4247 23.227 21.3343 24.284 20 24.284Z" fill="#A3A7A9"/>
</svg>
